<?xml version="1.0" encoding="utf-8"?>
<!-- Generator: Adobe Illustrator 17.0.0, SVG Export Plug-In . SVG Version: 6.00 Build 0)  -->
<!DOCTYPE svg PUBLIC "-//W3C//DTD SVG 1.1//EN" "http://www.w3.org/Graphics/SVG/1.1/DTD/svg11.dtd">
<svg version="1.1" id="Layer_1" xmlns="http://www.w3.org/2000/svg" xmlns:xlink="http://www.w3.org/1999/xlink" x="0px" y="0px"
	 width="30px" height="30px" viewBox="0 0 30 30" enable-background="new 0 0 30 30" xml:space="preserve">
<g>
	<path fill="#FFFFFF" d="M14.756,28.492c-6.825,0-12.379-5.553-12.379-12.378c0-4.658,2.574-8.877,6.718-11.011l1.133,2.2
		c-3.317,1.708-5.377,5.084-5.377,8.811c0,5.461,4.443,9.904,9.905,9.904c5.46,0,9.904-4.443,9.904-9.904
		c0-3.718-2.052-7.089-5.357-8.8l1.138-2.197c4.128,2.138,6.693,6.351,6.693,10.997C27.134,22.939,21.582,28.492,14.756,28.492z"/>
	<rect x="13.519" y="1.508" fill="#FFFFFF" width="2.474" height="10.375"/>
</g>
</svg>
