<?xml version="1.0" encoding="utf-8"?>
<!-- Generator: Adobe Illustrator 17.0.0, SVG Export Plug-In . SVG Version: 6.00 Build 0)  -->
<!DOCTYPE svg PUBLIC "-//W3C//DTD SVG 1.1//EN" "http://www.w3.org/Graphics/SVG/1.1/DTD/svg11.dtd">
<svg version="1.1" id="Layer_1" xmlns="http://www.w3.org/2000/svg" xmlns:xlink="http://www.w3.org/1999/xlink" x="0px" y="0px"
	 width="300px" height="100px" viewBox="0 0 300 100" enable-background="new 0 0 300 100" xml:space="preserve">
<g>
	<path fill="#FFFFFF" d="M131.25,67.169c-1.512,0.756-4.913,1.566-9.34,1.566c-12.58,0-19.058-7.829-19.058-18.194
		c0-12.417,8.854-19.328,19.868-19.328c4.265,0,7.505,0.864,8.962,1.62l-1.673,6.533c-1.674-0.702-3.995-1.35-6.911-1.35
		c-6.533,0-11.608,3.941-11.608,12.039c0,7.289,4.319,11.878,11.662,11.878c2.483,0,5.237-0.54,6.857-1.188L131.25,67.169z"/>
	<path fill="#FFFFFF" d="M168.342,49.622c0,11.932-7.234,19.166-17.87,19.166c-10.798,0-17.115-8.152-17.115-18.518
		c0-10.906,6.965-19.058,17.708-19.058C162.241,31.212,168.342,39.58,168.342,49.622z M142.049,50.108
		c0,7.127,3.347,12.148,8.854,12.148c5.561,0,8.746-5.291,8.746-12.364c0-6.533-3.131-12.148-8.8-12.148
		C145.288,37.744,142.049,43.035,142.049,50.108z"/>
	<path fill="#FFFFFF" d="M173.742,68.194V31.806h9.61l7.558,13.335c2.16,3.833,4.319,8.368,5.939,12.472h0.162
		c-0.54-4.805-0.702-9.718-0.702-15.171V31.806h7.559v36.389h-8.639l-7.774-14.037c-2.16-3.887-4.535-8.585-6.317-12.849
		l-0.162,0.054c0.216,4.805,0.324,9.934,0.324,15.873v10.96H173.742z"/>
	<path fill="#FFFFFF" d="M210.996,31.806h22.244v6.749h-13.983v8.314h13.065v6.694h-13.065v14.631h-8.261V31.806z"/>
	<path fill="#FFFFFF" d="M247.871,68.194V53.294l-11.5-21.488h9.394l3.726,8.746c1.134,2.645,1.889,4.589,2.807,6.965h0.108
		c0.81-2.267,1.674-4.373,2.754-6.965l3.671-8.746h9.232l-11.985,21.218v15.171H247.871z"/>
</g>
<g>
	<path fill="#FFFFFF" d="M56.816,11.503c2.7,1.345,2.711,1.349,1.742,4.459c-0.689,2.214-1.324,4.452-2.177,6.602
		c-0.222,0.559-1.169,0.83-1.783,1.233c-0.319-0.652-0.988-1.356-0.9-1.946c0.518-3.464,1.212-6.902,1.847-10.348
		C55.968,11.503,56.392,11.503,56.816,11.503z"/>
	<path fill="#FFFFFF" d="M49.16,70.753c2.257,1.295,3.489,3.06,3.04,5.761c-0.068,0.407,0.541,1.064,0.991,1.395
		c1.591,1.169,3.272,2.215,4.878,3.365c1.971,1.412,1.943,2.914-0.117,4.074c-1.78,1.003-3.636,1.87-5.459,2.796
		c-1.4,0.71-2.406,0.295-3.556-0.776c-2.768-2.577-5.69-4.994-8.617-7.393c-0.989-0.81-2.023-0.779-3.268-0.005
		c-2.978,1.853-6.122,1.361-9.101-0.096c-5.293-2.589-8.677-6.663-9.246-12.698c-0.225-2.382,0.718-4.38,2.372-6.109
		c1.852-1.935,3.641-3.933,5.406-5.948c3.47-3.959,4.835-8.661,4.898-13.852c0.033-2.744-0.191-5.617,0.543-8.192
		c0.742-2.605,2.239-5.137,3.93-7.289c1.766-2.247,4.606-1.847,7.12-1.373c5.119,0.966,9.459,3.635,13.504,6.747
		c7.652,5.888,14,12.876,17.795,21.916c0.055,0.13,0.125,0.254,0.176,0.385c3.376,8.793-0.384,13.463-9.466,14.765
		c-3.196,0.458-6.492,0.176-9.716,0.497c-2.052,0.205-4.056,0.898-6.081,1.372C49.177,70.317,49.169,70.535,49.16,70.753z
		 M71.906,58.032c-0.409-1.337-0.659-2.75-1.252-3.999c-4.551-9.594-11.757-16.858-20.54-22.552
		c-2.529-1.639-5.574-2.687-8.529-3.399c-2.325-0.56-3.673,0.891-3.469,3.305c0.145,1.714,0.59,3.526,1.385,5.04
		c5.326,10.148,13.089,17.969,23.149,23.441c1.629,0.886,3.547,1.444,5.392,1.681C70.568,61.871,71.709,60.605,71.906,58.032z
		 M62.295,64.568c0.027-0.186,0.055-0.372,0.082-0.559c-11.888-5.902-20.749-14.875-26.939-26.633
		c-0.202,0.744-0.211,1.369-0.2,1.994c0.085,5.065-0.353,10.005-3.047,14.505c-0.341,0.57-0.284,1.503-0.147,2.216
		c1.052,5.453,6.416,10.72,11.886,11.638c0.774,0.13,1.748,0.033,2.416-0.34c3.484-1.948,7.23-2.737,11.165-2.816
		C59.105,64.541,60.7,64.568,62.295,64.568z"/>
	<path fill="#FFFFFF" d="M77.013,45.76c-0.218-0.23-0.945-0.652-0.982-1.128c-0.04-0.512,0.453-1.402,0.911-1.562
		c2.99-1.043,6.024-1.965,9.064-2.858c1.852-0.544,1.567,1.119,1.914,2.041c0.388,1.032,0.402,2.011-1.034,2.207
		C83.744,44.89,80.598,45.29,77.013,45.76z"/>
	<path fill="#FFFFFF" d="M77.493,24.609c-0.828,1.091-1.054,1.526-1.399,1.821c-2.25,1.927-4.483,3.879-6.828,5.685
		c-0.487,0.375-1.422,0.169-2.15,0.231c0.075-0.726-0.108-1.649,0.27-2.143c1.713-2.238,3.546-4.389,5.426-6.491
		c0.439-0.491,1.371-1.068,1.83-0.906C75.665,23.166,76.532,23.967,77.493,24.609z"/>
	<path fill="#FFFFFF" d="M57.901,53.277c-3.952-3.931-7.657-7.617-11.407-11.347c3.02-2.317,7.079-2.131,9.853,0.153
		C59.464,44.649,60.199,48.707,57.901,53.277z"/>
</g>
</svg>
