<?xml version="1.0" encoding="utf-8"?>
<!-- Generator: Adobe Illustrator 17.0.0, SVG Export Plug-In . SVG Version: 6.00 Build 0)  -->
<!DOCTYPE svg PUBLIC "-//W3C//DTD SVG 1.1//EN" "http://www.w3.org/Graphics/SVG/1.1/DTD/svg11.dtd">
<svg version="1.1" id="Layer_1" xmlns="http://www.w3.org/2000/svg" xmlns:xlink="http://www.w3.org/1999/xlink" x="0px" y="0px"
	 width="300px" height="247.586px" viewBox="0 0 300 247.586" enable-background="new 0 0 300 247.586" xml:space="preserve">
<g>
	<path fill="#FFFFFF" d="M71.947,220.764c-2.168,1.084-7.047,2.246-13.398,2.246c-18.044,0-27.337-11.229-27.337-26.098
		c0-17.812,12.701-27.724,28.499-27.724c6.118,0,10.765,1.239,12.855,2.323l-2.4,9.371c-2.401-1.007-5.731-1.936-9.913-1.936
		c-9.371,0-16.65,5.653-16.65,17.269c0,10.455,6.195,17.037,16.727,17.037c3.562,0,7.512-0.774,9.835-1.703L71.947,220.764z"/>
	<path fill="#FFFFFF" d="M125.15,195.594c0,17.115-10.377,27.492-25.633,27.492c-15.489,0-24.549-11.693-24.549-26.562
		c0-15.643,9.99-27.337,25.401-27.337C116.4,169.187,125.15,181.19,125.15,195.594z M87.436,196.291
		c0,10.223,4.801,17.425,12.701,17.425c7.976,0,12.545-7.59,12.545-17.734c0-9.37-4.491-17.425-12.623-17.425
		C92.083,178.557,87.436,186.147,87.436,196.291z"/>
	<path fill="#FFFFFF" d="M132.896,222.235v-52.196h13.785l10.842,19.128c3.098,5.499,6.196,12.004,8.52,17.89h0.232
		c-0.774-6.893-1.007-13.94-1.007-21.762v-15.257h10.843v52.196h-12.391L152.567,202.1c-3.098-5.576-6.505-12.314-9.061-18.431
		l-0.232,0.077c0.31,6.892,0.465,14.249,0.465,22.768v15.721H132.896z"/>
	<path fill="#FFFFFF" d="M186.333,170.039h31.906v9.681h-20.057v11.926h18.741v9.602h-18.741v20.987h-11.849V170.039z"/>
	<path fill="#FFFFFF" d="M239.228,222.235v-21.374l-16.495-30.822h13.475l5.344,12.546c1.626,3.794,2.71,6.582,4.026,9.99h0.155
		c1.162-3.252,2.401-6.273,3.95-9.99l5.266-12.546h13.243l-17.192,30.435v21.762H239.228z"/>
</g>
<g>
	<path fill="#FFFFFF" d="M148.859,35.38c4.127,2.056,4.142,2.061,2.662,6.814c-1.053,3.383-2.024,6.803-3.327,10.09
		c-0.339,0.854-1.787,1.268-2.725,1.884c-0.488-0.996-1.511-2.072-1.376-2.974c0.791-5.294,1.852-10.547,2.823-15.814
		C147.563,35.38,148.211,35.38,148.859,35.38z"/>
	<path fill="#FFFFFF" d="M137.16,125.925c3.448,1.979,5.332,4.676,4.646,8.804c-0.103,0.622,0.826,1.627,1.515,2.132
		c2.432,1.786,5,3.385,7.454,5.143c3.012,2.158,2.969,4.453-0.179,6.226c-2.72,1.532-5.556,2.858-8.342,4.272
		c-2.139,1.086-3.676,0.451-5.435-1.187c-4.23-3.939-8.695-7.631-13.168-11.297c-1.511-1.238-3.092-1.19-4.994-0.007
		c-4.551,2.831-9.355,2.079-13.908-0.147c-8.089-3.956-13.26-10.183-14.129-19.404c-0.343-3.64,1.097-6.693,3.625-9.335
		c2.83-2.957,5.564-6.01,8.262-9.089c5.303-6.051,7.388-13.235,7.485-21.168c0.051-4.193-0.292-8.584,0.83-12.518
		c1.135-3.98,3.421-7.851,6.005-11.139c2.698-3.433,7.04-2.823,10.88-2.098c7.823,1.476,14.455,5.556,20.636,10.311
		c11.694,8.998,21.394,19.677,27.194,33.491c0.083,0.199,0.191,0.388,0.268,0.589c5.159,13.437-0.586,20.573-14.466,22.564
		c-4.884,0.7-9.921,0.268-14.848,0.76c-3.136,0.313-6.198,1.372-9.293,2.097C137.186,125.258,137.173,125.592,137.16,125.925z
		 M171.92,106.485c-0.625-2.043-1.007-4.202-1.913-6.112c-6.954-14.662-17.967-25.762-31.388-34.464
		c-3.864-2.505-8.518-4.106-13.034-5.194c-3.553-0.856-5.613,1.362-5.301,5.05c0.222,2.619,0.901,5.388,2.116,7.702
		c8.139,15.507,20.003,27.459,35.375,35.822c2.489,1.354,5.42,2.207,8.24,2.568C169.875,112.352,171.619,110.417,171.92,106.485z
		 M157.232,116.473c0.042-0.285,0.084-0.569,0.126-0.854c-18.167-9.019-31.709-22.731-41.167-40.699
		c-0.309,1.137-0.322,2.092-0.306,3.047c0.129,7.74-0.539,15.289-4.657,22.166c-0.522,0.871-0.434,2.296-0.224,3.387
		c1.608,8.332,9.805,16.381,18.163,17.785c1.182,0.198,2.671,0.051,3.692-0.52c5.324-2.978,11.049-4.182,17.062-4.303
		C152.357,116.432,154.795,116.473,157.232,116.473z"/>
	<path fill="#FFFFFF" d="M179.724,87.732c-0.334-0.352-1.444-0.997-1.5-1.723c-0.06-0.783,0.692-2.143,1.392-2.387
		c4.57-1.593,9.206-3.003,13.851-4.368c2.83-0.832,2.395,1.71,2.925,3.118c0.594,1.576,0.614,3.073-1.581,3.373
		C190.01,86.401,185.203,87.013,179.724,87.732z"/>
	<path fill="#FFFFFF" d="M180.457,55.408c-1.266,1.668-1.611,2.332-2.138,2.783c-3.438,2.945-6.85,5.928-10.434,8.687
		c-0.745,0.573-2.172,0.259-3.285,0.354c0.115-1.109-0.165-2.52,0.412-3.275c2.617-3.42,5.419-6.707,8.292-9.919
		c0.671-0.75,2.095-1.632,2.796-1.385C177.664,53.204,178.99,54.428,180.457,55.408z"/>
	<path fill="#FFFFFF" d="M150.518,99.219c-6.039-6.007-11.702-11.64-17.432-17.34c4.615-3.541,10.818-3.257,15.057,0.234
		C152.907,86.034,154.03,92.236,150.518,99.219z"/>
</g>
</svg>
