<?xml version="1.0" encoding="utf-8"?>
<!-- Generator: Adobe Illustrator 17.0.0, SVG Export Plug-In . SVG Version: 6.00 Build 0)  -->
<!DOCTYPE svg PUBLIC "-//W3C//DTD SVG 1.1//EN" "http://www.w3.org/Graphics/SVG/1.1/DTD/svg11.dtd">
<svg version="1.1" id="Layer_1" xmlns="http://www.w3.org/2000/svg" xmlns:xlink="http://www.w3.org/1999/xlink" x="0px" y="0px"
	 width="30px" height="30px" viewBox="0 0 30 30" enable-background="new 0 0 30 30" xml:space="preserve">
<path fill="#FFFFFF" d="M29.613,28.439H0.208v-0.781c0-5.548,3.818-10.525,9.432-12.491c-1.184-1.486-1.844-3.413-1.844-5.463
	c0-4.489,3.192-8.142,7.115-8.142s7.115,3.652,7.115,8.142c0,2.05-0.66,3.978-1.843,5.463c5.613,1.966,9.432,6.944,9.432,12.491
	V28.439z M1.799,26.877h26.222c-0.366-4.912-4.156-9.195-9.468-10.574l-1.416-0.368l1.094-0.972c1.418-1.26,2.232-3.177,2.232-5.26
	c0-3.628-2.491-6.58-5.553-6.58s-5.553,2.952-5.553,6.58c0,2.082,0.813,3.999,2.232,5.26l1.094,0.972l-1.416,0.368
	C5.955,17.682,2.165,21.965,1.799,26.877z"/>
</svg>
