<?xml version="1.0" encoding="utf-8"?>
<!-- Generator: Adobe Illustrator 17.0.0, SVG Export Plug-In . SVG Version: 6.00 Build 0)  -->
<!DOCTYPE svg PUBLIC "-//W3C//DTD SVG 1.1//EN" "http://www.w3.org/Graphics/SVG/1.1/DTD/svg11.dtd">
<svg version="1.1" id="Layer_1" xmlns="http://www.w3.org/2000/svg" xmlns:xlink="http://www.w3.org/1999/xlink" x="0px" y="0px"
	 width="30px" height="30px" viewBox="0 0 30 30" enable-background="new 0 0 30 30" xml:space="preserve">
<g opacity="0.5">
	<g>
		<circle fill="#FFFFFF" cx="18.631" cy="11.263" r="8.024"/>
		<path fill="#231F20" d="M18.631,20.286c-4.976,0-9.024-4.048-9.024-9.023s4.048-9.024,9.024-9.024
			c4.976,0,9.023,4.048,9.023,9.024S23.607,20.286,18.631,20.286z M18.631,4.239c-3.873,0-7.024,3.151-7.024,7.024
			c0,3.873,3.151,7.023,7.024,7.023s7.023-3.151,7.023-7.023C25.655,7.39,22.504,4.239,18.631,4.239z"/>
	</g>
	
		<rect x="7.131" y="14.793" transform="matrix(0.7071 0.7071 -0.7071 0.7071 17.9205 0.6867)" fill="#231F20" width="2" height="14.365"/>
</g>
</svg>
